<svg xmlns="http://www.w3.org/2000/svg" width="22" height="17" viewBox="0 0 22 17" fill="none"><path d="M19.2156 0.546208H2.02145C1.51909 0.546208 1.08524 0.732688 0.719896 1.10565C0.354549 1.47861 0.171875 1.90865 0.171875 2.39578V14.6578C0.171875 15.1449 0.354549 15.5711 0.719896 15.9365C1.08524 16.3018 1.51909 16.4845 2.02145 16.4845H19.2156C19.7027 16.4845 20.129 16.3018 20.4943 15.9365C20.8597 15.5711 21.0424 15.1449 21.0424 14.6578V2.39578C21.0424 1.90865 20.8597 1.47861 20.4943 1.10565C20.129 0.732688 19.7027 0.546208 19.2156 0.546208ZM18.9188 1.82492L10.6071 10.1366L2.29546 1.82492H18.9188ZM1.45059 14.3609V2.66979L7.36466 8.44685L1.45059 14.3609ZM2.29546 15.2058L8.20952 9.29172L10.3331 11.4153C10.6223 11.6893 10.904 11.6893 11.178 11.4153L13.1417 9.42872L19.0786 15.3656L2.29546 15.2058ZM19.7636 14.3609L13.8496 8.44685L19.7636 2.53279V14.3609Z" fill="#F32321"></path></svg>