<svg xmlns="http://www.w3.org/2000/svg" width="19" height="31" viewBox="0 0 19 31" fill="none"><path d="M14.9952 0.29994H4.20489C3.60709 0.29994 3.05911 0.444408 2.56094 0.733345C2.06278 1.02228 1.66424 1.41583 1.36534 1.914C1.06644 2.41217 0.916992 2.96015 0.916992 3.55795V26.9319C0.916992 27.5297 1.06644 28.0777 1.36534 28.5759C1.66424 29.074 2.06278 29.4676 2.56094 29.7565C3.05911 30.0455 3.60709 30.1899 4.20489 30.1899H14.9952C15.593 30.1899 16.141 30.0455 16.6391 29.7565C17.1373 29.4676 17.5358 29.074 17.8347 28.5759C18.1336 28.0777 18.2831 27.5297 18.2831 26.9319V3.55795C18.2831 2.96015 18.1336 2.41217 17.8347 1.914C17.5358 1.41583 17.1373 1.02228 16.6391 0.733345C16.141 0.444408 15.593 0.29994 14.9952 0.29994ZM4.20489 2.2129H14.9952C15.3738 2.2129 15.6926 2.34242 15.9517 2.60147C16.2107 2.86052 16.3402 3.17934 16.3402 3.55795V22.4783H2.85984V3.55795C2.85984 3.17934 2.98937 2.86052 3.24841 2.60147C3.50746 2.34242 3.82629 2.2129 4.20489 2.2129ZM14.9952 28.277H4.20489C3.82629 28.277 3.50746 28.1475 3.24841 27.8884C2.98937 27.6294 2.85984 27.3105 2.85984 26.9319V24.3913H16.3402V26.902C16.3402 27.2806 16.2107 27.5995 15.9517 27.8585C15.6926 28.1176 15.3738 28.2471 14.9952 28.2471V28.277ZM10.5715 26.3341C10.5715 26.5932 10.4768 26.8174 10.2875 27.0067C10.0982 27.196 9.87403 27.2906 9.61498 27.2906C9.35594 27.2906 9.13176 27.2009 8.94246 27.0216C8.75315 26.8423 8.6585 26.6181 8.6585 26.3491C8.6585 26.0801 8.74817 25.8509 8.92751 25.6616C9.10685 25.4723 9.33103 25.3777 9.60004 25.3777C9.86905 25.3777 10.0982 25.4673 10.2875 25.6467C10.4768 25.826 10.5715 26.0552 10.5715 26.3341ZM5.25104 6.57684C5.05178 6.57684 4.87244 6.52204 4.71302 6.41245C4.55361 6.30285 4.43405 6.15838 4.35434 5.97904C4.27464 5.7997 4.25471 5.61538 4.29456 5.42607C4.33442 5.23677 4.42409 5.07238 4.56357 4.93289L6.02818 3.46828C6.22745 3.26901 6.45661 3.16938 6.71565 3.16938C6.9747 3.16938 7.20386 3.26901 7.40312 3.46828C7.60239 3.66755 7.70202 3.8967 7.70202 4.15575C7.70202 4.4148 7.60239 4.64395 7.40312 4.84322L5.93851 6.27794C5.75917 6.47721 5.53002 6.57684 5.25104 6.57684ZM4.7728 10.9109C4.57354 10.9109 4.3942 10.8561 4.23478 10.7465C4.07537 10.6369 3.95581 10.4924 3.8761 10.3131C3.7964 10.1338 3.77647 9.94943 3.81632 9.76013C3.85618 9.57082 3.94585 9.40643 4.08533 9.26694L9.88399 3.46828C10.0833 3.26901 10.3124 3.16938 10.5715 3.16938C10.8305 3.16938 11.0597 3.26901 11.2589 3.46828C11.4582 3.66755 11.5578 3.8967 11.5578 4.15575C11.5578 4.4148 11.4582 4.64395 11.2589 4.84322L5.46027 10.612C5.28093 10.8113 5.05178 10.9109 4.7728 10.9109Z" fill="#F32321"></path></svg>