<svg xmlns="http://www.w3.org/2000/svg" width="56" height="56" viewBox="0 0 56 56" fill="none"><rect x="0.5" y="0.5" width="55" height="55" rx="26.7" stroke="#E0E0F2"></rect><g clip-path="url(#clip0_10_5337)"><path d="M33.9891 16.9501H26.0111C25.5691 16.9501 25.1639 17.0569 24.7956 17.2705C24.4272 17.4842 24.1326 17.7752 23.9116 18.1435C23.6906 18.5118 23.5801 18.917 23.5801 19.359V36.641C23.5801 37.083 23.6906 37.4882 23.9116 37.8565C24.1326 38.2249 24.4272 38.5158 24.7956 38.7295C25.1639 38.9431 25.5691 39.0499 26.0111 39.0499H33.9891C34.4311 39.0499 34.8363 38.9431 35.2046 38.7295C35.5729 38.5158 35.8676 38.2249 36.0886 37.8565C36.3096 37.4882 36.4201 37.083 36.4201 36.641V19.359C36.4201 18.917 36.3096 18.5118 36.0886 18.1435C35.8676 17.7752 35.5729 17.4842 35.2046 17.2705C34.8363 17.0569 34.4311 16.9501 33.9891 16.9501ZM26.0111 18.3645H33.9891C34.269 18.3645 34.5048 18.4603 34.6963 18.6518C34.8878 18.8433 34.9836 19.079 34.9836 19.359V33.3482H25.0166V19.359C25.0166 19.079 25.1123 18.8433 25.3039 18.6518C25.4954 18.4603 25.7311 18.3645 26.0111 18.3645ZM33.9891 37.6355H26.0111C25.7311 37.6355 25.4954 37.5398 25.3039 37.3482C25.1123 37.1567 25.0166 36.921 25.0166 36.641V34.7626H34.9836V36.6189C34.9836 36.8989 34.8878 37.1346 34.6963 37.3261C34.5048 37.5177 34.269 37.6134 33.9891 37.6134V37.6355ZM30.7183 36.199C30.7183 36.3906 30.6483 36.5563 30.5084 36.6963C30.3684 36.8363 30.2027 36.9062 30.0111 36.9062C29.8196 36.9062 29.6538 36.8399 29.5139 36.7073C29.3739 36.5747 29.3039 36.409 29.3039 36.2101C29.3039 36.0112 29.3702 35.8418 29.5028 35.7018C29.6354 35.5618 29.8012 35.4919 30.0001 35.4919C30.199 35.4919 30.3684 35.5582 30.5084 35.6908C30.6483 35.8234 30.7183 35.9928 30.7183 36.199ZM26.7846 21.5911C26.6372 21.5911 26.5046 21.5505 26.3868 21.4695C26.2689 21.3885 26.1805 21.2817 26.1216 21.1491C26.0626 21.0165 26.0479 20.8802 26.0774 20.7402C26.1068 20.6003 26.1731 20.4787 26.2763 20.3756L27.3591 19.2927C27.5065 19.1453 27.6759 19.0717 27.8674 19.0717C28.059 19.0717 28.2284 19.1453 28.3757 19.2927C28.5231 19.44 28.5967 19.6094 28.5967 19.801C28.5967 19.9925 28.5231 20.1619 28.3757 20.3093L27.2928 21.3701C27.1603 21.5174 26.9908 21.5911 26.7846 21.5911ZM26.431 24.7955C26.2836 24.7955 26.151 24.755 26.0332 24.674C25.9153 24.593 25.8269 24.4861 25.768 24.3535C25.709 24.2209 25.6943 24.0847 25.7238 23.9447C25.7532 23.8047 25.8195 23.6832 25.9227 23.58L30.21 19.2927C30.3574 19.1453 30.5268 19.0717 30.7183 19.0717C30.9099 19.0717 31.0793 19.1453 31.2266 19.2927C31.374 19.44 31.4476 19.6094 31.4476 19.801C31.4476 19.9925 31.374 20.1619 31.2266 20.3093L26.9393 24.5745C26.8067 24.7219 26.6372 24.7955 26.431 24.7955Z" fill="black"></path></g><defs><clipPath id="clip0_10_5337"><rect width="12.84" height="54.39" fill="white" transform="matrix(1 0 0 -1 23.5801 55.1951)"></rect></clipPath></defs></svg>