<svg xmlns="http://www.w3.org/2000/svg" width="56" height="56" viewBox="0 0 56 56" fill="none"><rect x="0.5" y="0.5" width="55" height="55" rx="26.7" stroke="#E0E0F2"></rect><g clip-path="url(#clip0_10_5322)"><path d="M27.9998 16.9507C26.5855 16.9507 25.2669 17.3043 24.0441 18.0115C22.8655 18.7186 21.9227 19.6615 21.2155 20.8401C20.5084 22.0629 20.1548 23.3814 20.1548 24.7957C20.1548 25.7975 20.4347 27.0129 20.9945 28.442C21.5249 29.7826 22.2136 31.1086 23.0608 32.4197C23.9079 33.7309 24.766 34.7917 25.6352 35.6019C26.5634 36.4711 27.3516 36.9058 27.9998 36.9058C28.648 36.9058 29.4362 36.4711 30.3643 35.6019C31.2335 34.7917 32.0917 33.7309 32.9388 32.4197C33.7859 31.1086 34.4747 29.7826 35.005 28.442C35.5649 27.0129 35.8448 25.7975 35.8448 24.7957C35.8448 23.3814 35.4912 22.0629 34.7841 20.8401C34.0769 19.6615 33.134 18.7186 31.9554 18.0115C30.7326 17.3043 29.4141 16.9507 27.9998 16.9507ZM27.9998 35.4914C27.6609 35.4914 27.1379 35.1231 26.4308 34.3865C25.7236 33.6499 25.0091 32.7365 24.2872 31.6463C23.5064 30.453 22.8803 29.2891 22.4088 28.1547C21.8637 26.8583 21.5912 25.7386 21.5912 24.7957C21.5912 23.6319 21.8858 22.5564 22.4751 21.5693C23.035 20.597 23.8011 19.8309 24.7734 19.2711C25.7605 18.6818 26.8359 18.3871 27.9998 18.3871C29.1636 18.3871 30.2391 18.6818 31.2262 19.2711C32.1985 19.8309 32.9646 20.597 33.5244 21.5693C34.1137 22.5564 34.4084 23.6319 34.4084 24.7957C34.4084 25.7386 34.1358 26.8583 33.5907 28.1547C33.1193 29.2891 32.4932 30.453 31.7123 31.6463C30.9905 32.7365 30.2759 33.6499 29.5688 34.3865C28.8616 35.1231 28.3386 35.4914 27.9998 35.4914ZM27.9998 19.8014C27.3368 19.8014 26.7107 19.9414 26.1214 20.2213C25.6647 20.4423 25.2632 20.7369 24.917 21.1053C24.5708 21.4736 24.2946 21.8934 24.0883 22.3649C23.7053 23.2341 23.6206 24.1291 23.8342 25.0499C24.0478 25.9706 24.5156 26.7404 25.2375 27.3592C25.9593 27.9779 26.7954 28.3168 27.7457 28.3757C28.6959 28.4346 29.5688 28.2026 30.3643 27.6796C31.1599 27.1566 31.7197 26.4494 32.0438 25.5581C32.3679 24.6668 32.3937 23.7681 32.1212 22.8621C31.8486 21.9561 31.3293 21.2194 30.5632 20.6522C29.7971 20.085 28.9427 19.8014 27.9998 19.8014ZM27.9998 26.9393C27.5136 26.9393 27.0606 26.8251 26.6407 26.5968C26.2208 26.3684 25.8783 26.0517 25.6131 25.6465C25.348 25.2414 25.1969 24.7994 25.1601 24.3206C25.1233 23.8418 25.2006 23.3814 25.3922 22.9394C25.6721 22.2912 26.1288 21.8124 26.7623 21.503C27.16 21.3262 27.5725 21.2379 27.9998 21.2379C28.5154 21.2379 28.9905 21.3668 29.4251 21.6246C29.8597 21.8824 30.206 22.2286 30.4638 22.6632C30.7216 23.0978 30.8505 23.5729 30.8505 24.0886C30.8505 24.6042 30.7216 25.0793 30.4638 25.5139C30.206 25.9485 29.8597 26.2947 29.4251 26.5526C28.9905 26.8104 28.5154 26.9393 27.9998 26.9393ZM27.9998 39.0493C27.4547 39.0493 26.8728 39.0199 26.254 38.9609C25.1785 38.8431 24.3093 38.6515 23.6464 38.3864C22.7477 38.018 22.2983 37.5245 22.2983 36.9058C22.2983 36.3607 22.6519 35.9113 23.3591 35.5577C23.4769 35.4988 23.5985 35.473 23.7237 35.4804C23.8489 35.4878 23.9668 35.5283 24.0773 35.6019C24.1878 35.6756 24.2688 35.7677 24.3204 35.8782C24.3719 35.9887 24.394 36.1102 24.3867 36.2428C24.3793 36.3754 24.3425 36.4932 24.2762 36.5964C24.2099 36.6995 24.1178 36.7805 23.9999 36.8395L23.8452 36.9058C25.1712 37.4656 26.556 37.7013 27.9998 37.6129C29.4436 37.7013 30.8284 37.4656 32.1543 36.9058L31.9996 36.8395C31.8228 36.7511 31.7013 36.6148 31.635 36.4306C31.5687 36.2465 31.5798 36.066 31.6682 35.8892C31.7565 35.7124 31.8928 35.5909 32.077 35.5246C32.2611 35.4583 32.4416 35.4693 32.6184 35.5577C33.0309 35.7493 33.3255 35.9776 33.5023 36.2428C33.6349 36.449 33.7012 36.67 33.7012 36.9058C33.7012 37.5245 33.2519 38.018 32.3532 38.3864C31.6903 38.6515 30.8137 38.8431 29.7235 38.9609C29.1194 39.0199 28.5449 39.0493 27.9998 39.0493Z" fill="black"></path></g><defs><clipPath id="clip0_10_5322"><rect width="15.69" height="54.39" fill="white" transform="matrix(1 0 0 -1 20.1548 55.1951)"></rect></clipPath></defs></svg>